# Blender 3.3.0
# www.blender.org
mtllib gosc.mtl
o Cube
v 0.142495 0.540900 -0.555707
v 0.133328 -0.740742 -0.414310
v 0.166511 0.570984 0.555707
v 0.130108 -0.740742 0.414820
v -0.142495 0.540900 -0.555707
v -0.133328 -0.740742 -0.414310
v -0.166511 0.570984 0.555707
v -0.130108 -0.740742 0.414820
v -0.130108 -0.740742 0.155832
v 0.130108 -0.740742 0.148657
v -0.133328 -0.740742 -0.127044
v -0.166511 0.290779 0.555707
v 0.166511 0.290779 0.555707
v 0.133328 -0.740742 -0.133054
v 0.142495 0.320863 -0.555707
v -0.142495 0.320863 -0.555707
v 0.372620 -0.740742 0.006546
v -0.372620 -0.740742 0.016158
v 0.365356 -0.740742 -0.544874
v -0.365356 -0.740742 -0.544874
v 0.365356 -0.740742 -0.004194
v -0.365356 -0.740742 0.005231
v -0.130108 -1.756071 0.155832
v -0.130108 -1.756071 0.414820
v 0.130108 -1.756071 0.414820
v 0.130108 -1.756071 0.148657
v 0.133328 -1.756071 -0.414310
v -0.133328 -1.756071 -0.414310
v 0.133328 -1.756071 -0.133054
v -0.133328 -1.756071 -0.127044
v -0.372620 -0.740742 0.555707
v -0.143727 0.740742 0.111374
v 0.143727 0.740742 0.111374
v 0.372620 -0.740742 0.555707
v 0.372620 -0.740742 -0.555707
v -0.372620 -0.740742 -0.555707
v 0.143727 0.740742 -0.111374
v -0.143727 0.740742 -0.111374
v 0.142495 0.320863 -1.870243
v -0.142495 0.320863 -1.870243
v 0.142495 0.540900 -1.870243
v -0.142495 0.540900 -1.870243
v -0.166511 0.290779 1.716494
v -0.166511 0.570984 1.716494
v 0.166511 0.570984 1.716494
v 0.166511 0.290779 1.716494
v 0.372620 0.740742 0.555707
v -0.372620 0.740742 0.555707
v 0.372620 0.740742 -0.555707
v -0.372620 0.740742 -0.555707
v -0.143727 1.404782 0.060484
v 0.202410 1.404782 -0.219855
v -0.202410 1.404782 -0.219855
v 0.143727 1.404782 0.060484
v 0.143727 0.842479 0.111374
v -0.143727 0.842479 0.111374
v 0.143727 0.842479 -0.111374
v -0.143727 0.842479 -0.111374
v 0.143727 0.842479 0.060484
v -0.202410 0.842479 -0.219855
v 0.202410 0.842479 -0.219855
v -0.143727 0.842479 0.060484
v 0.143727 0.842479 -0.060484
v -0.202410 0.842479 0.219855
v 0.202410 0.842479 0.219855
v -0.143727 0.842479 -0.060484
v 0.143727 1.404782 -0.060484
v -0.202410 1.404782 0.219855
v 0.202410 1.404782 0.219855
v -0.143727 1.404782 -0.060484
vn -0.0000 -0.0000 -1.0000
vn -0.0000 -1.0000 -0.0000
vn -1.0000 -0.0000 -0.0000
vn 1.0000 -0.0000 -0.0000
vn 0.0225 -0.0000 0.9997
vn -0.0276 -0.0000 -0.9996
vn -0.0000 -0.0000 1.0000
vn -0.0000 1.0000 -0.0000
vt 0.597847 0.472847
vt 0.353611 0.521389
vt 0.585963 0.789037
vt 0.343309 0.718309
vt 0.597847 0.277153
vt 0.146389 0.521389
vt 0.585963 0.960963
vt 0.156691 0.718309
vt 0.156691 0.660053
vt 0.343309 0.658439
vt 0.146389 0.607059
vt 0.414037 0.960963
vt 0.414037 0.789037
vt 0.353611 0.605267
vt 0.402153 0.472847
vt 0.402153 0.277153
vt 0.375000 0.626472
vt 0.375000 0.121365
vt 0.125000 0.628635
vt 0.372563 0.502437
vt 0.127437 0.502437
vt 0.372563 0.624057
vt 0.127437 0.626177
vt 0.156691 0.660053
vt 0.156691 0.718309
vt 0.343309 0.718309
vt 0.343309 0.658439
vt 0.353611 0.521389
vt 0.146389 0.521389
vt 0.353611 0.605267
vt 0.146389 0.607059
vt 0.375000 0.000000
vt 0.125000 0.750000
vt 0.375000 1.000000
vt 0.855241 0.730241
vt 0.644759 0.730241
vt 0.375000 0.750000
vt 0.375000 0.500000
vt 0.125000 0.500000
vt 0.375000 0.250000
vt 0.644759 0.519759
vt 0.855241 0.519759
vt 0.402153 0.472847
vt 0.402153 0.277153
vt 0.597847 0.472847
vt 0.597847 0.277153
vt 0.414037 0.960963
vt 0.585963 0.960963
vt 0.585963 0.789037
vt 0.414037 0.789037
vt 0.625000 0.750000
vt 0.625000 0.000000
vt 0.625000 1.000000
vt 0.875000 0.750000
vt 0.625000 0.500000
vt 0.625000 0.250000
vt 0.875000 0.500000
vt 0.855241 0.730241
vt 0.601789 0.242454
vt 0.898211 0.242454
vt 0.644759 0.730241
vt 0.644759 0.730241
vt 0.855241 0.730241
vt 0.644759 0.519759
vt 0.855241 0.519759
vt 0.644759 0.730241
vt 0.898211 0.242454
vt 0.601789 0.242454
vt 0.855241 0.730241
vt 0.644759 0.519759
vt 0.898210 1.007546
vt 0.601789 1.007546
vt 0.855241 0.519759
vt 0.644759 0.519759
vt 0.898210 1.007546
vt 0.601789 1.007546
vt 0.855241 0.519759
s 0
usemtl Material
f 37/41/1 38/42/1 58/65/1 57/64/1
f 12/12/2 13/13/2 46/50/2 43/47/2
f 31/32/3 48/52/3 50/56/3 36/40/3 18/18/3
f 2/2/4 14/14/4 29/30/4 27/28/4
f 35/38/4 49/55/4 47/51/4 34/37/4 17/17/4
f 16/16/3 5/5/3 42/46/3 40/44/3
f 14/14/5 11/11/5 30/31/5 29/30/5
f 9/9/2 8/8/2 31/33/2 18/19/2
f 8/8/2 4/4/2 34/37/2 31/33/2
f 4/4/2 10/10/2 17/17/2 34/37/2
f 10/10/2 9/9/2 18/19/2 17/17/2
f 19/20/2 20/21/2 36/39/2 35/38/2
f 21/22/2 19/20/2 35/38/2 17/17/2
f 20/21/2 22/23/2 18/19/2 36/39/2
f 22/23/2 21/22/2 17/17/2 18/19/2
f 2/2/2 6/6/2 20/21/2 19/20/2
f 14/14/2 2/2/2 19/20/2 21/22/2
f 6/6/2 11/11/2 22/23/2 20/21/2
f 11/11/2 14/14/2 21/22/2 22/23/2
f 28/29/2 27/28/2 29/30/2 30/31/2
f 23/24/2 26/27/2 25/26/2 24/25/2
f 10/10/4 4/4/4 25/26/4 26/27/4
f 8/8/3 9/9/3 23/24/3 24/25/3
f 11/11/3 6/6/3 28/29/3 30/31/3
f 6/6/1 2/2/1 27/28/1 28/29/1
f 9/9/6 10/10/6 26/27/6 23/24/6
f 4/4/7 8/8/7 24/25/7 25/26/7
f 12/12/7 7/7/7 48/53/7 31/34/7
f 3/3/7 13/13/7 34/37/7 47/51/7
f 7/7/7 3/3/7 47/51/7 48/53/7
f 13/13/7 12/12/7 31/34/7 34/37/7
f 16/16/1 15/15/1 35/38/1 36/40/1
f 15/15/1 1/1/1 49/55/1 35/38/1
f 5/5/1 16/16/1 36/40/1 50/56/1
f 1/1/1 5/5/1 50/56/1 49/55/1
f 40/44/1 42/46/1 41/45/1 39/43/1
f 15/15/2 16/16/2 40/44/2 39/43/2
f 5/5/8 1/1/8 41/45/8 42/46/8
f 1/1/4 15/15/4 39/43/4 41/45/4
f 46/50/7 45/49/7 44/48/7 43/47/7
f 13/13/4 3/3/4 45/49/4 46/50/4
f 3/3/8 7/7/8 44/48/8 45/49/8
f 7/7/3 12/12/3 43/47/3 44/48/3
f 33/36/8 32/35/8 48/54/8 47/51/8
f 37/41/8 33/36/8 47/51/8 49/55/8
f 32/35/8 38/42/8 50/57/8 48/54/8
f 38/42/8 37/41/8 49/55/8 50/57/8
f 63/70/8 59/66/8 55/62/8 57/64/8
f 33/36/4 37/41/4 57/64/4 55/62/4
f 38/42/3 32/35/3 56/63/3 58/65/3
f 32/35/7 33/36/7 55/62/7 56/63/7
f 64/71/8 65/72/8 61/68/8 60/67/8
f 62/69/8 66/73/8 58/65/8 56/63/8
f 66/73/8 63/70/8 57/64/8 58/65/8
f 53/60/2 52/59/2 51/58/2 54/61/2
f 66/73/3 62/69/3 51/58/3 70/77/3
f 63/70/1 66/73/1 70/77/1 67/74/1
f 59/66/4 63/70/4 67/74/4 54/61/4
f 65/72/1 64/71/1 68/75/1 69/76/1
f 59/66/8 62/69/8 56/63/8 55/62/8
f 68/75/2 53/60/2 54/61/2 67/74/2
f 52/59/2 69/76/2 70/77/2 51/58/2
f 69/76/2 68/75/2 67/74/2 70/77/2
f 61/68/3 65/72/3 69/76/3 52/59/3
f 64/71/4 60/67/4 53/60/4 68/75/4
f 62/69/7 59/66/7 54/61/7 51/58/7
f 60/67/7 61/68/7 52/59/7 53/60/7
